# xmcd CD database file
#
# Track frame offsets:
#	150
#	17824
#	29636
#	43828
#	59875
#	77079
#	95563
#	110479
#	131447
#	146977
#	159530
#	172528
#	198484
#
# Disc length: 2899 seconds
#
# Revision: 0
# Processed by: cddbd v1.5.1PL0 Copyright (c) Steve Scherf et al.
# Submitted via: CDex 1.51
#
DISCID=b90b510d
DTITLE=Jakub Smolik - Samotar
DYEAR=2004
DGENRE=Country
TTITLE0=Jen Mou Vinou
TTITLE1=Jsem OK 
TTITLE2=V Pameti Mam
TTITLE3=Tak Rad Te Libam
TTITLE4=Lasko
TTITLE5=Jdu Dal 
TTITLE6=Jsem Sam 
TTITLE7=Pry Chlapi Nebreci
TTITLE8=Cesty
TTITLE9=Svet Je Zahadnej 
TTITLE10=Lharka
TTITLE11=Nebeska Brana
TTITLE12=Samotar
EXTD=YEAR: 2004
EXTT0=
EXTT1=
EXTT2=
EXTT3=
EXTT4=
EXTT5=
EXTT6=
EXTT7=
EXTT8=
EXTT9=
EXTT10=
EXTT11=
EXTT12=
PLAYORDER=
